name C:\Users\u0101727\Documents\MyRepositories\upper-imu-dc\Results\main_tracking\Case_69\kinematics.mot
datacolumns 10
datarows 28
range 5.00000000 5.27000000
endheader 
time	clav_prot	clav_elev	scapula_abduction	scapula_elevation	scapula_upward_rot	scapula_winging	plane_elv	shoulder_elv	axial_rot	
          5.00000000	        -23.75925200	          2.48849129	          0.23329348	         -4.13921530	         37.20555927	         -2.34576405	         68.45915086	         46.10987385	        -22.64435788	
          5.01000000	        -23.73737997	          2.25267808	         -0.17117946	         -4.20844597	         36.54827147	         -2.15191525	         68.22817074	         45.72560235	        -22.44650247	
          5.02000000	        -23.71212706	          2.01392145	         -0.56799497	         -4.27721514	         35.88876987	         -1.95386059	         67.98426481	         45.34502270	        -22.25550207	
          5.03000000	        -23.68347880	          1.77289159	         -0.95447125	         -4.34562737	         35.23071450	         -1.75258540	         67.72766690	         44.96757678	        -22.07144801	
          5.04000000	        -23.65141254	          1.53014650	         -1.32840663	         -4.41381679	         34.57715515	         -1.54897115	         67.45849924	         44.59277407	        -21.89424336	
          5.05000000	        -23.61591018	          1.28616319	         -1.68806099	         -4.48192245	         33.93058211	         -1.34379992	         67.17681864	         44.22017488	        -21.72355820	
          5.06000000	        -23.57697648	          1.04137271	         -2.03214563	         -4.55006259	         33.29298072	         -1.13776309	         66.88268070	         43.84937216	        -21.55875155	
          5.07000000	        -23.53465765	          0.79619577	         -2.35981147	         -4.61831033	         32.66588932	         -0.93147345	         66.57620553	         43.47997097	        -21.39877086	
          5.08000000	        -23.48905523	          0.55107347	         -2.67062807	         -4.68667387	         32.05045785	         -0.72547841	         66.25762650	         43.11156768	        -21.24205795	
          5.09000000	        -23.44033211	          0.30648771	         -2.96454949	         -4.75508444	         31.44750276	         -0.52027161	         65.92730667	         42.74373280	        -21.08649650	
          5.10000000	        -23.38871025	          0.06296801	         -3.24186889	         -4.82339360	         30.85755414	         -0.31630074	         65.58572004	         42.37600167	        -20.92942824	
          5.11000000	        -23.33446118	         -0.17891541	         -3.50316511	         -4.89137950	         30.28089273	         -0.11397028	         65.23340339	         42.00787585	        -20.76774382	
          5.12000000	        -23.27789194	         -0.41856811	         -3.74924614	         -4.95875932	         29.71757850	          0.08635952	         64.87089626	         41.63883461	        -20.59802769	
          5.13000000	        -23.21932947	         -0.65539091	         -3.98109290	         -5.02520414	         29.16747543	          0.28437485	         64.49868723	         41.26835337	        -20.41672476	
          5.14000000	        -23.15910495	         -0.88879898	         -4.19980415	         -5.09035432	         28.63027631	          0.47981001	         64.11717594	         40.89592515	        -20.22029845	
          5.15000000	        -23.09754166	         -1.11824688	         -4.40654959	         -5.15383957	         28.10552411	          0.67245147	         63.72664919	         40.52108543	        -20.00536424	
          5.16000000	        -23.03495786	         -1.34328673	         -4.60254862	         -5.21532301	         27.59262313	          0.86215551	         63.32726630	         40.14344760	        -19.76880415	
          5.17000000	        -22.97167181	         -1.56361797	         -4.78905330	         -5.27454068	         27.09085413	          1.04886309	         62.91903625	         39.76274515	        -19.50786409	
          5.18000000	        -22.90791688	         -1.77889892	         -4.96716568	         -5.33118133	         26.59949411	          1.23250947	         62.50180168	         39.37881887	        -19.22025618	
          5.19000000	        -22.84368129	         -1.98841896	         -5.13751477	         -5.38467293	         26.11800332	          1.41286295	         62.07523526	         38.99154185	        -18.90426263	
          5.20000000	        -22.77881110	         -2.19140322	         -5.30041829	         -5.43439707	         25.64593754	          1.58964220	         61.63879397	         38.60087295	        -18.55883078	
          5.21000000	        -22.71317058	         -2.38753317	         -5.45614330	         -5.48005148	         25.18278176	          1.76273657	         61.19166888	         38.20692418	        -18.18364559	
          5.22000000	        -22.64669243	         -2.57695078	         -5.60500748	         -5.52165436	         24.72793250	          1.93222114	         60.73280283	         37.80997444	        -17.77917481	
          5.23000000	        -22.57921639	         -2.75984375	         -5.74708106	         -5.55926727	         24.28088295	          2.09816931	         60.26096334	         37.41038093	        -17.34667129	
          5.24000000	        -22.51049450	         -2.93637925	         -5.88217057	         -5.59296163	         23.84128861	          2.26061263	         59.77482657	         37.00855466	        -16.88812312	
          5.25000000	        -22.44026005	         -3.10677011	         -6.00993498	         -5.62287073	         23.40895258	          2.41956834	         59.27306025	         36.60495789	        -16.40613472	
          5.26000000	        -22.36827865	         -3.27127987	         -6.12997716	         -5.64919789	         22.98382413	          2.57504318	         58.75440903	         36.20007993	        -15.90377305	
          5.27000000	        -22.29438110	         -3.43020481	         -6.24190999	         -5.67220614	         22.56599646	          2.72702925	         58.21776085	         35.79440391	        -15.38438775	
